<?xml version="1.0" standalone="no"?>
<!DOCTYPE svg PUBLIC "-//W3C//DTD SVG 20010904//EN"
 "http://www.w3.org/TR/2001/REC-SVG-20010904/DTD/svg10.dtd">
<svg version="1.0" xmlns="http://www.w3.org/2000/svg"
 width="512.000000pt" height="512.000000pt" viewBox="0 0 512.000000 512.000000"
 preserveAspectRatio="xMidYMid meet">
<metadata>
Created by potrace 1.11, written by Peter Selinger 2001-2013
</metadata>
<g transform="translate(0.000000,512.000000) scale(0.100000,-0.100000)"
fill="#000000" stroke="none">
<path d="M0 2560 l0 -2560 2560 0 2560 0 0 2560 0 2560 -2560 0 -2560 0 0
-2560z m2885 2320 c230 -39 486 -147 638 -269 88 -70 170 -147 210 -197 203
-247 290 -482 291 -779 1 -211 -38 -382 -135 -593 -16 -35 -29 -65 -29 -67 0
-24 -263 -434 -359 -560 -26 -33 -60 -79 -76 -103 -17 -23 -47 -66 -68 -95
-93 -129 -255 -368 -314 -463 -147 -241 -303 -565 -303 -629 0 -25 1 -25 89
-25 50 0 93 -4 96 -10 4 -6 53 -10 115 -10 62 0 111 -4 115 -10 3 -5 31 -10
61 -10 30 0 74 -4 97 -9 23 -5 85 -17 137 -26 52 -9 109 -21 125 -25 17 -5 50
-14 75 -21 25 -7 49 -16 54 -21 6 -4 18 -8 28 -8 9 0 33 -9 53 -20 20 -11 44
-20 54 -20 10 0 26 -9 36 -20 10 -11 23 -20 29 -20 14 0 116 -101 116 -116 0
-39 -74 -134 -105 -134 -8 0 -15 -4 -15 -9 0 -11 -56 -41 -76 -41 -7 0 -29 -9
-49 -20 -20 -11 -44 -20 -55 -20 -10 0 -22 -4 -25 -10 -3 -5 -17 -10 -30 -10
-13 0 -27 -4 -30 -10 -3 -5 -21 -10 -39 -10 -17 0 -36 -4 -42 -9 -5 -5 -28
-12 -51 -15 -24 -3 -62 -9 -85 -12 -24 -3 -47 -10 -52 -15 -6 -5 -37 -9 -71
-9 -34 0 -65 -4 -71 -9 -21 -21 -537 -40 -809 -29 -287 11 -378 18 -389 29 -6
5 -37 9 -71 9 -34 0 -65 4 -71 9 -5 5 -28 12 -51 15 -24 3 -62 9 -85 12 -24 3
-47 10 -52 15 -6 5 -25 9 -42 9 -18 0 -36 5 -39 10 -3 6 -17 10 -30 10 -13 0
-27 4 -30 10 -3 5 -15 10 -25 10 -11 0 -35 9 -55 20 -20 11 -42 20 -49 20 -20
0 -76 30 -76 41 0 5 -7 9 -15 9 -29 0 -105 96 -105 134 0 14 101 116 116 116
6 0 19 9 29 20 10 11 26 20 36 20 10 0 34 9 54 20 20 11 44 20 53 20 10 0 22
4 28 8 5 5 29 14 54 21 25 7 59 16 75 21 17 4 73 16 125 25 52 9 114 21 137
26 23 5 67 9 97 9 30 0 58 4 61 10 4 6 53 10 115 10 62 0 111 4 115 10 3 6 46
10 96 10 88 0 89 0 89 25 0 64 -156 388 -303 629 -59 95 -221 334 -314 463
-21 29 -51 72 -68 95 -16 24 -50 70 -76 103 -100 131 -288 427 -349 550 -132
262 -173 424 -173 670 0 336 116 610 362 856 224 223 475 344 841 402 14 2 95
5 182 6 116 1 186 -4 273 -19z"/>
<path d="M2575 4189 c-113 -11 -219 -52 -334 -128 -104 -69 -145 -115 -201
-227 l-45 -89 0 -130 0 -130 48 -99 c56 -116 132 -198 245 -266 121 -71 155
-80 310 -81 157 0 245 16 329 61 31 17 61 30 68 30 17 0 126 117 174 188 77
113 108 278 77 401 -41 159 -140 296 -273 373 -108 63 -111 64 -178 81 -91 23
-122 25 -220 16z"/>
</g>
</svg>
